<svg xmlns="http://www.w3.org/2000/svg" xmlns:xlink="http://www.w3.org/1999/xlink"><defs><style>
    .sprite-symbol-usage {display: none;}
    .sprite-symbol-usage:target {display: inline;}
  </style><symbol viewBox="0 0 32 32" id="bookmark"><path d="M6 0v32l10-10 10 10V0z" /></symbol><symbol viewBox="0 0 32 32" id="bookmarks"><path d="M8 4v28l10-10 10 10V4zm16-4H4v28l2-2V2h18z" /></symbol><symbol viewBox="0 0 36 32" id="books"><path d="M7 4H1c-.55 0-1 .45-1 1v22c0 .55.45 1 1 1h6c.55 0 1-.45 1-1V5c0-.55-.45-1-1-1zm-1 6H2V8h4v2zM17 4h-6c-.55 0-1 .45-1 1v22c0 .55.45 1 1 1h6c.55 0 1-.45 1-1V5c0-.55-.45-1-1-1zm-1 6h-4V8h4v2z" /><path d="M23.909 5.546l-5.358 2.7a1.003 1.003 0 00-.443 1.343l8.999 17.861c.247.491.852.691 1.343.443l5.358-2.7c.491-.247.691-.852.443-1.343L25.252 5.989a1.003 1.003 0 00-1.343-.443z" /></symbol><symbol viewBox="0 0 20 20" id="brush"><path d="M2.763 13.563c-1.515 1.488-.235 3.016-2.247 5.279-.908 1.023 3.738.711 6.039-1.551.977-.961.701-2.359-.346-3.389-1.047-1.028-2.47-1.3-3.446-.339zM19.539.659C18.763-.105 10.16 6.788 7.6 9.305c-1.271 1.25-1.695 1.92-2.084 2.42-.17.219.055.285.154.336.504.258.856.496 1.311.943s.699.793.959 1.289c.053.098.121.318.342.152.51-.383 1.191-.801 2.462-2.049C13.305 9.88 20.317 1.422 19.539.659z" /></symbol><symbol viewBox="0 0 20 20" id="chat"><path d="M5.8 12.2V6H2C.9 6 0 6.9 0 8v6c0 1.1.9 2 2 2h1v3l3-3h5c1.1 0 2-.9 2-2v-1.82a.943.943 0 01-.2.021l-7-.001zM18 1H9c-1.1 0-2 .9-2 2v8h7l3 3v-3h1c1.1 0 2-.899 2-2V3c0-1.1-.9-2-2-2z" /></symbol><symbol viewBox="0 0 20 20" id="check"><path d="M8.294 16.998c-.435 0-.847-.203-1.111-.553L3.61 11.724a1.392 1.392 0 01.27-1.951 1.392 1.392 0 011.953.27l2.351 3.104 5.911-9.492c.407-.652 1.267-.852 1.921-.445s.854 1.266.446 1.92L9.478 16.34a1.39 1.39 0 01-1.12.656c-.022.002-.042.002-.064.002z" /></symbol><symbol viewBox="0 0 20 20" id="code"><path d="M5.719 14.75a.997.997 0 01-.664-.252L-.005 10l5.341-4.748a1 1 0 011.328 1.495L3.005 10l3.378 3.002a1 1 0 01-.664 1.748zm8.945-.002L20.005 10l-5.06-4.498a.999.999 0 10-1.328 1.495L16.995 10l-3.659 3.252a1 1 0 001.328 1.496zm-4.678 1.417l2-12a1 1 0 10-1.972-.329l-2 12a1 1 0 101.972.329z" /></symbol><symbol viewBox="0 0 32 32" id="css3"><path fill="#1572b6" d="M2 0h28l-2.547 28.751L15.969 32l-11.42-3.251zm22.787 5.884L7.214 5.88l.284 3.496 13.5.003-.34 3.621h-8.853l.32 3.431h8.243l-.488 4.697L16 22.2l-3.941-1.08-.251-2.813h-3.48l.387 5.14 7.287 2.271 7.164-2.04z" /></symbol><symbol viewBox="0 0 32 32" id="database"><path d="M16 0C7.163 0 0 2.239 0 5v4c0 2.761 7.163 5 16 5s16-2.239 16-5V5c0-2.761-7.163-5-16-5z" /><path d="M16 17c-8.837 0-16-2.239-16-5v6c0 2.761 7.163 5 16 5s16-2.239 16-5v-6c0 2.761-7.163 5-16 5z" /><path d="M16 26c-8.837 0-16-2.239-16-5v6c0 2.761 7.163 5 16 5s16-2.239 16-5v-6c0 2.761-7.163 5-16 5z" /></symbol><symbol viewBox="0 0 32 32" id="display"><path d="M0 2v20h32V2H0zm30 18H2V4h28v16zm-9 4H11l-1 4-2 2h16l-2-2z" /></symbol><symbol viewBox="0 0 20 20" id="documents"><path d="M19.398 7.415l-7.444-1.996L10.651.558c-.109-.406-.545-.642-.973-.529L.602 2.461c-.428.114-.686.538-.577.944l3.23 12.051c.109.406.544.643.971.527l3.613-.967-.492 1.838c-.109.406.149.83.577.943l8.11 2.174c.428.115.862-.121.972-.529l2.97-11.084c.108-.406-.15-.83-.578-.943zM1.633 3.631l7.83-2.096 2.898 10.818-7.83 2.096L1.633 3.631zm14.045 14.832L8.864 16.6l.536-2.002 3.901-1.047c.428-.113.688-.537.578-.943l-1.508-5.627 5.947 1.631-2.64 9.851z" /></symbol><symbol viewBox="0 0 20 20" id="download"><path d="M15 7h-3V1H8v6H5l5 5 5-5zm4.338 6.532c-.21-.224-1.611-1.723-2.011-2.114A1.503 1.503 0 0016.285 11h-1.757l3.064 2.994h-3.544a.274.274 0 00-.24.133L12.992 16H7.008l-.816-1.873a.276.276 0 00-.24-.133H2.408L5.471 11H3.715c-.397 0-.776.159-1.042.418-.4.392-1.801 1.891-2.011 2.114-.489.521-.758.936-.63 1.449l.561 3.074c.128.514.691.936 1.252.936h16.312c.561 0 1.124-.422 1.252-.936l.561-3.074c.126-.513-.142-.928-.632-1.449z" /></symbol><symbol viewBox="0 0 20 20" id="email"><path d="M14.608 12.172c0 .84.239 1.175.864 1.175 1.393 0 2.28-1.775 2.28-4.727 0-4.512-3.288-6.672-7.393-6.672-4.223 0-8.064 2.832-8.064 8.184 0 5.112 3.36 7.896 8.52 7.896 1.752 0 2.928-.192 4.727-.792l.386 1.607c-1.776.577-3.674.744-5.137.744-6.768 0-10.393-3.72-10.393-9.456 0-5.784 4.201-9.72 9.985-9.72 6.024 0 9.215 3.6 9.215 8.016 0 3.744-1.175 6.6-4.871 6.6-1.681 0-2.784-.672-2.928-2.161-.432 1.656-1.584 2.161-3.145 2.161-2.088 0-3.84-1.609-3.84-4.848 0-3.264 1.537-5.28 4.297-5.28 1.464 0 2.376.576 2.782 1.488l.697-1.272h2.016v7.057h.002zm-2.951-3.168c0-1.319-.985-1.872-1.801-1.872-.888 0-1.871.719-1.871 2.832 0 1.68.744 2.616 1.871 2.616.792 0 1.801-.504 1.801-1.896v-1.68z" /></symbol><symbol viewBox="0 0 20 20" id="flag"><path d="M18.926 5.584c-9.339 13.568-6.142-.26-14.037 6.357L6.684 19H4.665L1 4.59l1.85-.664c8.849-6.471 4.228 5.82 15.637 1.254.364-.147.655.09.439.404z" /></symbol><symbol viewBox="0 0 20 20" id="game-controller"><path d="M19.444 9.361c-.882-4.926-2.854-6.379-3.903-6.379-1.637 0-2.057 1.217-5.541 1.258-3.484-.041-3.904-1.258-5.541-1.258-1.049 0-3.022 1.453-3.904 6.379-.503 2.812-1.049 7.01.252 7.514 1.619.627 2.168-.941 3.946-2.266C6.558 13.266 7.424 12.95 10 12.95s3.442.316 5.247 1.659c1.778 1.324 2.327 2.893 3.946 2.266 1.301-.504.755-4.701.251-7.514zM6 10a2 2 0 110-4 2 2 0 010 4zm7 0a1 1 0 110-2 1 1 0 110 2zm2-2a1 1 0 110-2 1 1 0 110 2z" /></symbol><symbol viewBox="0 0 20 20" id="github"><path d="M13.18 11.309c-.718 0-1.3.807-1.3 1.799 0 .994.582 1.801 1.3 1.801s1.3-.807 1.3-1.801c-.001-.992-.582-1.799-1.3-1.799zm4.526-4.683c.149-.365.155-2.439-.635-4.426 0 0-1.811.199-4.551 2.08-.575-.16-1.548-.238-2.519-.238-.973 0-1.945.078-2.52.238C4.74 2.399 2.929 2.2 2.929 2.2c-.789 1.987-.781 4.061-.634 4.426C1.367 7.634.8 8.845.8 10.497c0 7.186 5.963 7.301 7.467 7.301l1.734.002 1.732-.002c1.506 0 7.467-.115 7.467-7.301 0-1.652-.566-2.863-1.494-3.871zm-7.678 10.289h-.056c-3.771 0-6.709-.449-6.709-4.115 0-.879.31-1.693 1.047-2.369C5.537 9.304 7.615 9.9 9.972 9.9h.056c2.357 0 4.436-.596 5.664.531.735.676 1.045 1.49 1.045 2.369 0 3.666-2.937 4.115-6.709 4.115zm-3.207-5.606c-.718 0-1.3.807-1.3 1.799 0 .994.582 1.801 1.3 1.801s1.301-.807 1.301-1.801c0-.992-.582-1.799-1.301-1.799z" /></symbol><symbol viewBox="0 0 32 32" id="html5"><path fill="#e34f26" d="M2 0h28l-2.547 28.751L15.969 32 4.55 28.749zm9.375 13l-.309-3.624 13.412.004.307-3.496L7.217 5.88l.931 10.68h12.168l-.435 4.568-3.88 1.072-3.94-1.08-.251-2.813H8.331l.44 5.561L16 25.801l7.172-1.924.992-10.876z" /></symbol><symbol viewBox="0 0 32 32" id="javascript"><path fill="#f7df1e" d="M0 0h32v32H0zm29.379 24.368c-.233-1.46-1.184-2.687-4.004-3.831-.981-.46-2.072-.78-2.396-1.52-.121-.44-.14-.68-.061-.94.2-.861 1.22-1.12 2.02-.88.52.16 1 .56 1.301 1.2 1.379-.901 1.379-.901 2.34-1.5-.36-.56-.539-.801-.781-1.04-.84-.94-1.959-1.42-3.779-1.379l-.94.119c-.901.22-1.76.7-2.28 1.34-1.52 1.721-1.081 4.721.759 5.961 1.82 1.36 4.481 1.659 4.821 2.94.32 1.56-1.16 2.06-2.621 1.88-1.081-.24-1.68-.781-2.34-1.781l-2.44 1.401c.28.64.6.919 1.08 1.479 2.32 2.341 8.12 2.221 9.161-1.339.039-.12.32-.94.099-2.2zm-11.978-9.66h-2.997c0 2.584-.012 5.152-.012 7.74 0 1.643.084 3.151-.184 3.615-.44.919-1.573.801-2.088.64-.528-.261-.796-.621-1.107-1.14-.084-.14-.147-.261-.169-.261l-2.433 1.5c.407.84 1 1.563 1.765 2.023 1.14.68 2.672.9 4.276.54 1.044-.301 1.944-.921 2.415-1.881.68-1.24.536-2.76.529-4.461.016-2.739 0-5.479 0-8.239z" /></symbol><symbol viewBox="0 0 20 20" id="linkedin"><path d="M5 3c0 1.062-.71 1.976-2.001 1.976C1.784 4.976 1 4.114 1 3.052 1 1.962 1.76 1 3 1s1.976.91 2 2zM1 19V6h4v13H1zM7 10.444c0-1.545-.051-2.836-.102-3.951h3.594l.178 1.723h.076c.506-.811 1.746-2 3.822-2C17.1 6.216 19 7.911 19 11.558V19h-4v-6.861c0-1.594-.607-2.81-2-2.81-1.062 0-1.594.86-1.873 1.569-.102.254-.127.608-.127.963V19H7v-8.556z" /></symbol><symbol viewBox="0 0 20 20" id="mail"><path d="M1.574 5.286l7.5 4.029c.252.135.578.199.906.199.328 0 .654-.064.906-.199l7.5-4.029c.489-.263.951-1.286.054-1.286H1.521c-.897 0-.435 1.023.053 1.286zm17.039 2.203l-7.727 4.027c-.34.178-.578.199-.906.199s-.566-.021-.906-.199-7.133-3.739-7.688-4.028C.996 7.284 1 7.523 1 7.707V15c0 .42.566 1 1 1h16c.434 0 1-.58 1-1V7.708c0-.184.004-.423-.387-.219z" /></symbol><symbol viewBox="0 0 20 20" id="megaphone"><path d="M17.223 7.03c-1.584-3.686-4.132-6.49-5.421-5.967-2.189.891 1.304 5.164-9.447 9.533-.929.379-1.164 1.888-.775 2.792.388.902 1.658 1.801 2.587 1.424.161-.066.751-.256.751-.256.663.891 1.357.363 1.604.928l1.158 2.66c.219.502.715.967 1.075.83l2.05-.779c.468-.177.579-.596.436-.924-.154-.355-.786-.459-.967-.873-.18-.412-.769-1.738-.938-2.156-.23-.568.259-1.031.97-1.104 4.894-.512 5.809 2.512 7.475 1.834 1.287-.525 1.025-4.259-.558-7.942zm-.551 5.976c-.287.115-2.213-1.402-3.443-4.267-1.231-2.863-1.076-5.48-.79-5.597.286-.115 2.165 1.717 3.395 4.58s1.124 5.167.838 5.284z" /></symbol><symbol viewBox="0 0 32 32" id="mongodb"><path fill="#47a248" d="M22.907 12.691c-1.684-7.413-5.656-9.849-6.083-10.781-.469-.657-.977-1.909-.977-1.909l-.007.065v.017h-.001a.48.48 0 00-.005.052v.02h-.003c0 .013-.003.024-.003.035v.035h-.004c-.001.011-.001.024-.004.033v.028h-.003c0 .009 0 .02-.003.028v.027h-.003a.322.322 0 01-.003.043v.003l-.012.067v.011h-.003c-.001.005-.004.011-.004.016v.023h-.004v.029h-.007v.024h-.007v.028h-.005V.61h-.005v.023h-.008v.019h-.005v.024h-.005v.019h-.007v.017h-.004v.02h-.005l-.001.005V.75h-.004l-.001.008v.008h-.003l-.003.013-.013.028V.81l-.007.009V.83h-.005v.011h-.007v.011h-.004v.013h-.008v.019h-.005v.005h-.005V.9h-.005v.015h-.005v.011h-.008v.015h-.005v.011h-.007v.011h-.004v.013h-.007v.011h-.005v.008h-.005v.011h-.008v.012h-.005v.008h-.007v.011h-.005v.015h-.007v.005h-.004v.011h-.008v.005h-.005v.013h-.005v.005h-.005v.011h-.007v.008h-.004l-.003.005v.005h-.003c-.001.003-.003.003-.003.005v.001h-.001a.02.02 0 01-.005.009v.004h-.001c-.007.008-.011.016-.016.024v.001c-.003.003-.009.008-.012.013v.003h-.001l-.004.004v.004h-.003l-.004.004v.001h-.001l-.004.005v.005h-.004l-.003.003v.003h-.003c0 .003-.003.003-.003.004v.004h-.005l-.003.004v.008h-.004v.005h-.005v.008h-.005v.011h-.007v-.011h-.007v.005h-.005v.008h-.007v.011h-.007v.005h-.005v.008h-.005v.005h-.005v.011h-.008V1.3h-.005v.008h-.007v.005h-.005v.007h-.007v.013h-.003v.005h-.008v.007h-.005v.003h-.005v.005h-.007v.013h-.005v.005h-.007v.005h-.005v.008h-.007v.005h-.007v.005H15.3v.005h-.005v.013h-.005v.007h-.008v.005h-.005v.005h-.007v.008h-.005v.005h-.007v.009h-.005v.005h-.008v.008h-.003v.005h-.005v.005h-.007v.005h-.005v.008h-.007v.005h-.004l-.001.003v.003h-.003l-.005.005-.005.004v.008h-.005v.007h-.005v.005h-.005v.005h-.004l-.004.004v.004h-.003l-.003.003v.004h-.003c-.007.008-.009.013-.019.021l-.016.013a.493.493 0 00-.052.043c-.011.007-.021.016-.029.023v.001h-.001a7.387 7.387 0 01-.065.052v.001l-.099.083v-.001h-.003c-.076.063-.156.133-.248.212v.001h-.001c-.225.197-.493.451-.793.757l-.025.025c-1.813 1.876-4.671 5.785-4.972 12.103-.027.523-.021 1.031.008 1.525v.012c.145 2.489.927 4.615 1.904 6.341v.001a16.56 16.56 0 001.235 1.873v.001c1.469 1.94 2.969 3.089 3.352 3.368.588 1.364.533 3.705.533 3.705l.859.287s-.175-2.268.071-3.363a2.08 2.08 0 01.465-.883c.141-.1.56-.401 1.063-.86.024-.025.037-.048.059-.072 2.028-1.891 5.816-6.547 4.517-14.132z" /></symbol><symbol viewBox="0 0 32 32" id="mug"><path d="M30 10h-6V7c0-2.761-5.373-5-12-5S0 4.239 0 7v20c0 2.761 5.373 5 12 5s12-2.239 12-5v-3h6a2 2 0 002-2V12a2 2 0 00-2-2zM5.502 8.075C4.346 7.694 3.645 7.286 3.27 7c.375-.286 1.075-.694 2.232-1.075C7.313 5.328 9.62 5 12 5s4.688.329 6.498.925c1.156.381 1.857.789 2.232 1.075-.375.286-1.076.694-2.232 1.075C16.687 8.672 14.38 9 12 9s-4.688-.329-6.498-.925zM28 20h-4v-6h4v6z" /></symbol><symbol viewBox="0 0 32 32" id="node-dot-js"><path fill="#393" d="M15.997 32c-.428 0-.855-.112-1.229-.329l-3.915-2.316c-.584-.327-.299-.443-.107-.511.78-.271.937-.333 1.771-.805.087-.049.201-.031.291.023l3.008 1.785c.109.06.263.06.363 0l11.727-6.768a.37.37 0 00.179-.317V9.229a.38.38 0 00-.183-.323L16.181 2.143a.368.368 0 00-.361 0L4.101 8.907a.378.378 0 00-.185.321v13.533c0 .129.072.252.185.313l3.212 1.856c1.743.872 2.811-.155 2.811-1.187V10.382c0-.189.152-.337.341-.337h1.487a.34.34 0 01.34.337v13.361c0 2.327-1.267 3.66-3.472 3.66-.677 0-1.212 0-2.701-.735l-3.077-1.769a2.475 2.475 0 01-1.229-2.139V9.227c0-.879.471-1.7 1.229-2.137L14.769.314a2.567 2.567 0 012.464 0L28.958 7.09a2.475 2.475 0 011.232 2.137V22.76c0 .879-.472 1.697-1.232 2.139L17.233 31.67a2.45 2.45 0 01-1.233.329zm9.468-13.343c0-2.533-1.712-3.208-5.316-3.684-3.641-.481-4.012-.731-4.012-1.583 0-.704.313-1.644 3.011-1.644 2.409 0 3.297.519 3.663 2.143a.338.338 0 00.329.265h1.521a.34.34 0 00.337-.369c-.236-2.797-2.095-4.101-5.851-4.101-3.344 0-5.339 1.411-5.339 3.777 0 2.567 1.984 3.276 5.193 3.593 3.84.376 4.137.937 4.137 1.692 0 1.311-1.052 1.869-3.523 1.869-3.103 0-3.785-.779-4.015-2.323a.34.34 0 00-.337-.287h-1.516a.336.336 0 00-.339.337c0 1.976 1.075 4.331 6.207 4.331 3.717.001 5.848-1.461 5.848-4.017z" /></symbol><symbol viewBox="0 0 20 20" id="phone"><path d="M11.229 11.229c-1.583 1.582-3.417 3.096-4.142 2.371-1.037-1.037-1.677-1.941-3.965-.102-2.287 1.838-.53 3.064.475 4.068 1.16 1.16 5.484.062 9.758-4.211 4.273-4.274 5.368-8.598 4.207-9.758-1.005-1.006-2.225-2.762-4.063-.475s-.936 2.927.103 3.965c.722.725-.791 2.559-2.373 4.142z" /></symbol><symbol viewBox="0 0 32 32" id="power"><path d="M12 0L0 16h12L4 32l28-20H16L28 0z" /></symbol><symbol viewBox="0 0 32 32" id="react"><path fill="#61dafb" d="M16 13.148a2.852 2.852 0 000 5.704 2.852 2.852 0 000-5.704zm-7.989 8.525l-.629-.16C2.691 20.328.001 18.316.001 15.994s2.691-4.333 7.381-5.519l.629-.159.177.624a31.104 31.104 0 001.899 4.957l-.082-.186.135.284-.135.284a29.368 29.368 0 00-1.761 4.551l-.056.22zm-.922-9.74c-3.565 1.001-5.753 2.533-5.753 4.061 0 1.527 2.188 3.059 5.753 4.061a32.611 32.611 0 011.662-4.263l-.086.202a30.435 30.435 0 01-1.511-3.828l-.065-.234zm16.9 9.74l-.177-.625a30.782 30.782 0 00-1.9-4.954l.081.184-.135-.284.135-.284a29.456 29.456 0 001.762-4.55l.056-.221.177-.624.631.159c4.689 1.185 7.38 3.197 7.38 5.52s-2.691 4.333-7.38 5.519zm-.654-5.678a33.038 33.038 0 011.576 4.061c3.567-1.003 5.753-2.535 5.753-4.061 0-1.528-2.188-3.059-5.753-4.061a32.424 32.424 0 01-1.662 4.262l.086-.2zM7.08 11.927l-.177-.623C5.584 6.656 5.984 3.325 8 2.163c1.977-1.141 5.152.207 8.479 3.621l.453.465-.453.465a31.6 31.6 0 00-3.162 3.853l-.068.103-.18.257-.313.027a31.667 31.667 0 00-5.264.86l.218-.047zm2.528-8.84c-.357 0-.673.077-.94.231-1.325.764-1.56 3.42-.647 7.004a31.194 31.194 0 014.18-.658l.131-.01a33.328 33.328 0 012.756-3.414l-.02.022c-2.08-2.025-4.049-3.175-5.46-3.175zm12.785 27.149c-.001 0-.001 0 0 0-1.9 0-4.34-1.431-6.872-4.031l-.453-.465.453-.465a31.427 31.427 0 003.16-3.854l.068-.103.18-.257.312-.027a31.74 31.74 0 005.267-.858l-.218.046.629-.159.179.624c1.316 4.645.917 7.977-1.099 9.139a3.132 3.132 0 01-1.562.411h-.047.002zm-5.461-4.508c2.08 2.025 4.049 3.175 5.46 3.175h.001c.356 0 .673-.077.939-.231 1.325-.764 1.561-3.421.647-7.005a30.933 30.933 0 01-4.182.658l-.13.01a33.219 33.219 0 01-2.755 3.416l.02-.022zm7.988-13.801l-.629-.159c-1.453-.376-3.175-.664-4.939-.806l-.111-.007-.312-.027-.18-.257a31.57 31.57 0 00-3.237-3.966l.009.01-.453-.465.453-.465C18.846 2.372 22.02 1.024 24 2.164c2.016 1.163 2.416 4.493 1.099 9.14zm-5.253-2.274c1.523.139 2.969.364 4.312.668.915-3.584.679-6.24-.647-7.004-1.317-.761-3.793.405-6.4 2.944a33.376 33.376 0 012.666 3.289l.069.103zM9.608 30.236h-.046a3.153 3.153 0 01-1.577-.419l.015.008c-2.016-1.161-2.416-4.492-1.097-9.139l.176-.624.629.159c1.54.388 3.239.661 5.047.812l.313.027.179.257a31.521 31.521 0 003.239 3.967l-.01-.01.453.465-.453.465c-2.531 2.6-4.971 4.031-6.868 4.031zm-1.587-8.569c-.915 3.584-.679 6.241.647 7.005 1.316.751 3.791-.407 6.4-2.944a33.543 33.543 0 01-2.667-3.29l-.069-.103a33.315 33.315 0 01-4.534-.711l.224.043zm7.979.837c-1.097 0-2.225-.048-3.355-.141l-.313-.027-.18-.257a38.303 38.303 0 01-1.697-2.639l-.103-.19a36.12 36.12 0 01-1.45-2.728l-.105-.243-.133-.284.133-.284a38.537 38.537 0 011.658-3.161l-.103.191a40.4 40.4 0 011.8-2.829l.18-.257.313-.027a40.227 40.227 0 016.86.011l-.15-.011.312.027.179.257a39.103 39.103 0 013.252 5.56l.104.24.135.284-.135.284a39.328 39.328 0 01-3.439 5.925l.083-.125-.179.257-.312.027a41.083 41.083 0 01-3.356.141zm-2.929-1.445c1.973.148 3.885.148 5.86 0a37.57 37.57 0 002.827-4.836l.101-.228a37.891 37.891 0 00-3.012-5.19l.083.126a39.304 39.304 0 00-5.992.008l.134-.008a36.95 36.95 0 00-2.83 4.84l-.099.224a38.502 38.502 0 003.014 5.193l-.085-.13z" /></symbol><symbol viewBox="0 0 32 32" id="sort-amount-asc"><path d="M10 24V0H6v24H1l7 7 7-7h-5z" /><path d="M14 18h18v4H14v-4zM14 12h14v4H14v-4zM14 6h10v4H14V6zM14 0h6v4h-6V0z" /></symbol><symbol aria-hidden="true" overflow="hidden" id="sprite"><defs><symbol id="sprite_react" viewBox="0 0 32 32"><path fill="var(--color1, #61dafb)" d="M16 13.148a2.852 2.852 0 000 5.704 2.852 2.852 0 000-5.704zm-7.989 8.525l-.629-.16C2.691 20.328.001 18.316.001 15.994s2.691-4.333 7.381-5.519l.629-.159.177.624a31.104 31.104 0 001.899 4.957l-.082-.186.135.284-.135.284a29.368 29.368 0 00-1.761 4.551l-.056.22zm-.922-9.74c-3.565 1.001-5.753 2.533-5.753 4.061 0 1.527 2.188 3.059 5.753 4.061a32.611 32.611 0 011.662-4.263l-.086.202a30.435 30.435 0 01-1.511-3.828l-.065-.234zm16.9 9.74l-.177-.625a30.782 30.782 0 00-1.9-4.954l.081.184-.135-.284.135-.284a29.456 29.456 0 001.762-4.55l.056-.221.177-.624.631.159c4.689 1.185 7.38 3.197 7.38 5.52s-2.691 4.333-7.38 5.519zm-.654-5.678a33.038 33.038 0 011.576 4.061c3.567-1.003 5.753-2.535 5.753-4.061 0-1.528-2.188-3.059-5.753-4.061a32.424 32.424 0 01-1.662 4.262l.086-.2zM7.08 11.927l-.177-.623C5.584 6.656 5.984 3.325 8 2.163c1.977-1.141 5.152.207 8.479 3.621l.453.465-.453.465a31.6 31.6 0 00-3.162 3.853l-.068.103-.18.257-.313.027a31.667 31.667 0 00-5.264.86l.218-.047zm2.528-8.84c-.357 0-.673.077-.94.231-1.325.764-1.56 3.42-.647 7.004a31.194 31.194 0 014.18-.658l.131-.01a33.328 33.328 0 012.756-3.414l-.02.022c-2.08-2.025-4.049-3.175-5.46-3.175zm12.785 27.149c-.001 0-.001 0 0 0-1.9 0-4.34-1.431-6.872-4.031l-.453-.465.453-.465a31.427 31.427 0 003.16-3.854l.068-.103.18-.257.312-.027a31.74 31.74 0 005.267-.858l-.218.046.629-.159.179.624c1.316 4.645.917 7.977-1.099 9.139a3.132 3.132 0 01-1.562.411h-.047.002zm-5.461-4.508c2.08 2.025 4.049 3.175 5.46 3.175h.001c.356 0 .673-.077.939-.231 1.325-.764 1.561-3.421.647-7.005a30.933 30.933 0 01-4.182.658l-.13.01a33.219 33.219 0 01-2.755 3.416l.02-.022zm7.988-13.801l-.629-.159c-1.453-.376-3.175-.664-4.939-.806l-.111-.007-.312-.027-.18-.257a31.57 31.57 0 00-3.237-3.966l.009.01-.453-.465.453-.465C18.846 2.372 22.02 1.024 24 2.164c2.016 1.163 2.416 4.493 1.099 9.14zm-5.253-2.274c1.523.139 2.969.364 4.312.668.915-3.584.679-6.24-.647-7.004-1.317-.761-3.793.405-6.4 2.944a33.376 33.376 0 012.666 3.289l.069.103zM9.608 30.236h-.046a3.153 3.153 0 01-1.577-.419l.015.008c-2.016-1.161-2.416-4.492-1.097-9.139l.176-.624.629.159c1.54.388 3.239.661 5.047.812l.313.027.179.257a31.521 31.521 0 003.239 3.967l-.01-.01.453.465-.453.465c-2.531 2.6-4.971 4.031-6.868 4.031zm-1.587-8.569c-.915 3.584-.679 6.241.647 7.005 1.316.751 3.791-.407 6.4-2.944a33.543 33.543 0 01-2.667-3.29l-.069-.103a33.315 33.315 0 01-4.534-.711l.224.043zm7.979.837c-1.097 0-2.225-.048-3.355-.141l-.313-.027-.18-.257a38.303 38.303 0 01-1.697-2.639l-.103-.19a36.12 36.12 0 01-1.45-2.728l-.105-.243-.133-.284.133-.284a38.537 38.537 0 011.658-3.161l-.103.191a40.4 40.4 0 011.8-2.829l.18-.257.313-.027a40.227 40.227 0 016.86.011l-.15-.011.312.027.179.257a39.103 39.103 0 013.252 5.56l.104.24.135.284-.135.284a39.328 39.328 0 01-3.439 5.925l.083-.125-.179.257-.312.027a41.083 41.083 0 01-3.356.141zm-2.929-1.445c1.973.148 3.885.148 5.86 0a37.57 37.57 0 002.827-4.836l.101-.228a37.891 37.891 0 00-3.012-5.19l.083.126a39.304 39.304 0 00-5.992.008l.134-.008a36.95 36.95 0 00-2.83 4.84l-.099.224a38.502 38.502 0 003.014 5.193l-.085-.13z" /></symbol><symbol id="sprite_html5" viewBox="0 0 32 32"><path fill="var(--color2, #e34f26)" d="M2 0h28l-2.547 28.751L15.969 32 4.55 28.749zm9.375 13l-.309-3.624 13.412.004.307-3.496L7.217 5.88l.931 10.68h12.168l-.435 4.568-3.88 1.072-3.94-1.08-.251-2.813H8.331l.44 5.561L16 25.801l7.172-1.924.992-10.876z" /></symbol><symbol id="sprite_css3" viewBox="0 0 32 32"><path fill="var(--color3, #1572b6)" d="M2 0h28l-2.547 28.751L15.969 32l-11.42-3.251zm22.787 5.884L7.214 5.88l.284 3.496 13.5.003-.34 3.621h-8.853l.32 3.431h8.243l-.488 4.697L16 22.2l-3.941-1.08-.251-2.813h-3.48l.387 5.14 7.287 2.271 7.164-2.04z" /></symbol><symbol id="sprite_mongodb" viewBox="0 0 32 32"><path fill="var(--color4, #47a248)" d="M22.907 12.691c-1.684-7.413-5.656-9.849-6.083-10.781-.469-.657-.977-1.909-.977-1.909l-.007.065v.017h-.001a.48.48 0 00-.005.052v.02h-.003c0 .013-.003.024-.003.035v.035h-.004c-.001.011-.001.024-.004.033v.028h-.003c0 .009 0 .02-.003.028v.027h-.003a.322.322 0 01-.003.043v.003l-.012.067v.011h-.003c-.001.005-.004.011-.004.016v.023h-.004v.029h-.007v.024h-.007v.028h-.005V.61h-.005v.023h-.008v.019h-.005v.024h-.005v.019h-.007v.017h-.004v.02h-.005l-.001.005V.75h-.004l-.001.008v.008h-.003l-.003.013-.013.028V.81l-.007.009V.83h-.005v.011h-.007v.011h-.004v.013h-.008v.019h-.005v.005h-.005V.9h-.005v.015h-.005v.011h-.008v.015h-.005v.011h-.007v.011h-.004v.013h-.007v.011h-.005v.008h-.005v.011h-.008v.012h-.005v.008h-.007v.011h-.005v.015h-.007v.005h-.004v.011h-.008v.005h-.005v.013h-.005v.005h-.005v.011h-.007v.008h-.004l-.003.005v.005h-.003c-.001.003-.003.003-.003.005v.001h-.001a.02.02 0 01-.005.009v.004h-.001c-.007.008-.011.016-.016.024v.001c-.003.003-.009.008-.012.013v.003h-.001l-.004.004v.004h-.003l-.004.004v.001h-.001l-.004.005v.005h-.004l-.003.003v.003h-.003c0 .003-.003.003-.003.004v.004h-.005l-.003.004v.008h-.004v.005h-.005v.008h-.005v.011h-.007v-.011h-.007v.005h-.005v.008h-.007v.011h-.007v.005h-.005v.008h-.005v.005h-.005v.011h-.008V1.3h-.005v.008h-.007v.005h-.005v.007h-.007v.013h-.003v.005h-.008v.007h-.005v.003h-.005v.005h-.007v.013h-.005v.005h-.007v.005h-.005v.008h-.007v.005h-.007v.005H15.3v.005h-.005v.013h-.005v.007h-.008v.005h-.005v.005h-.007v.008h-.005v.005h-.007v.009h-.005v.005h-.008v.008h-.003v.005h-.005v.005h-.007v.005h-.005v.008h-.007v.005h-.004l-.001.003v.003h-.003l-.005.005-.005.004v.008h-.005v.007h-.005v.005h-.005v.005h-.004l-.004.004v.004h-.003l-.003.003v.004h-.003c-.007.008-.009.013-.019.021l-.016.013a.493.493 0 00-.052.043c-.011.007-.021.016-.029.023v.001h-.001a7.387 7.387 0 01-.065.052v.001l-.099.083v-.001h-.003c-.076.063-.156.133-.248.212v.001h-.001c-.225.197-.493.451-.793.757l-.025.025c-1.813 1.876-4.671 5.785-4.972 12.103-.027.523-.021 1.031.008 1.525v.012c.145 2.489.927 4.615 1.904 6.341v.001a16.56 16.56 0 001.235 1.873v.001c1.469 1.94 2.969 3.089 3.352 3.368.588 1.364.533 3.705.533 3.705l.859.287s-.175-2.268.071-3.363a2.08 2.08 0 01.465-.883c.141-.1.56-.401 1.063-.86.024-.025.037-.048.059-.072 2.028-1.891 5.816-6.547 4.517-14.132z" /></symbol><symbol id="sprite_node-dot-js" viewBox="0 0 32 32"><path fill="var(--color5, #393)" d="M15.997 32c-.428 0-.855-.112-1.229-.329l-3.915-2.316c-.584-.327-.299-.443-.107-.511.78-.271.937-.333 1.771-.805.087-.049.201-.031.291.023l3.008 1.785c.109.06.263.06.363 0l11.727-6.768a.37.37 0 00.179-.317V9.229a.38.38 0 00-.183-.323L16.181 2.143a.368.368 0 00-.361 0L4.101 8.907a.378.378 0 00-.185.321v13.533c0 .129.072.252.185.313l3.212 1.856c1.743.872 2.811-.155 2.811-1.187V10.382c0-.189.152-.337.341-.337h1.487a.34.34 0 01.34.337v13.361c0 2.327-1.267 3.66-3.472 3.66-.677 0-1.212 0-2.701-.735l-3.077-1.769a2.475 2.475 0 01-1.229-2.139V9.227c0-.879.471-1.7 1.229-2.137L14.769.314a2.567 2.567 0 012.464 0L28.958 7.09a2.475 2.475 0 011.232 2.137V22.76c0 .879-.472 1.697-1.232 2.139L17.233 31.67a2.45 2.45 0 01-1.233.329zm9.468-13.343c0-2.533-1.712-3.208-5.316-3.684-3.641-.481-4.012-.731-4.012-1.583 0-.704.313-1.644 3.011-1.644 2.409 0 3.297.519 3.663 2.143a.338.338 0 00.329.265h1.521a.34.34 0 00.337-.369c-.236-2.797-2.095-4.101-5.851-4.101-3.344 0-5.339 1.411-5.339 3.777 0 2.567 1.984 3.276 5.193 3.593 3.84.376 4.137.937 4.137 1.692 0 1.311-1.052 1.869-3.523 1.869-3.103 0-3.785-.779-4.015-2.323a.34.34 0 00-.337-.287h-1.516a.336.336 0 00-.339.337c0 1.976 1.075 4.331 6.207 4.331 3.717.001 5.848-1.461 5.848-4.017z" /></symbol><symbol id="sprite_javascript" viewBox="0 0 32 32"><path fill="var(--color6, #f7df1e)" d="M0 0h32v32H0zm29.379 24.368c-.233-1.46-1.184-2.687-4.004-3.831-.981-.46-2.072-.78-2.396-1.52-.121-.44-.14-.68-.061-.94.2-.861 1.22-1.12 2.02-.88.52.16 1 .56 1.301 1.2 1.379-.901 1.379-.901 2.34-1.5-.36-.56-.539-.801-.781-1.04-.84-.94-1.959-1.42-3.779-1.379l-.94.119c-.901.22-1.76.7-2.28 1.34-1.52 1.721-1.081 4.721.759 5.961 1.82 1.36 4.481 1.659 4.821 2.94.32 1.56-1.16 2.06-2.621 1.88-1.081-.24-1.68-.781-2.34-1.781l-2.44 1.401c.28.64.6.919 1.08 1.479 2.32 2.341 8.12 2.221 9.161-1.339.039-.12.32-.94.099-2.2zm-11.978-9.66h-2.997c0 2.584-.012 5.152-.012 7.74 0 1.643.084 3.151-.184 3.615-.44.919-1.573.801-2.088.64-.528-.261-.796-.621-1.107-1.14-.084-.14-.147-.261-.169-.261l-2.433 1.5c.407.84 1 1.563 1.765 2.023 1.14.68 2.672.9 4.276.54 1.044-.301 1.944-.921 2.415-1.881.68-1.24.536-2.76.529-4.461.016-2.739 0-5.479 0-8.239z" /></symbol><symbol id="sprite_download" viewBox="0 0 20 20"><path d="M15 7h-3V1H8v6H5l5 5 5-5zm4.338 6.532c-.21-.224-1.611-1.723-2.011-2.114A1.503 1.503 0 0016.285 11h-1.757l3.064 2.994h-3.544a.274.274 0 00-.24.133L12.992 16H7.008l-.816-1.873a.276.276 0 00-.24-.133H2.408L5.471 11H3.715c-.397 0-.776.159-1.042.418-.4.392-1.801 1.891-2.011 2.114-.489.521-.758.936-.63 1.449l.561 3.074c.128.514.691.936 1.252.936h16.312c.561 0 1.124-.422 1.252-.936l.561-3.074c.126-.513-.142-.928-.632-1.449z" /></symbol><symbol id="sprite_brush" viewBox="0 0 20 20"><path d="M2.763 13.563c-1.515 1.488-.235 3.016-2.247 5.279-.908 1.023 3.738.711 6.039-1.551.977-.961.701-2.359-.346-3.389-1.047-1.028-2.47-1.3-3.446-.339zM19.539.659C18.763-.105 10.16 6.788 7.6 9.305c-1.271 1.25-1.695 1.92-2.084 2.42-.17.219.055.285.154.336.504.258.856.496 1.311.943s.699.793.959 1.289c.053.098.121.318.342.152.51-.383 1.191-.801 2.462-2.049C13.305 9.88 20.317 1.422 19.539.659z" /></symbol><symbol id="sprite_chat" viewBox="0 0 20 20"><path d="M5.8 12.2V6H2C.9 6 0 6.9 0 8v6c0 1.1.9 2 2 2h1v3l3-3h5c1.1 0 2-.9 2-2v-1.82a.943.943 0 01-.2.021l-7-.001zM18 1H9c-1.1 0-2 .9-2 2v8h7l3 3v-3h1c1.1 0 2-.899 2-2V3c0-1.1-.9-2-2-2z" /></symbol><symbol id="sprite_check" viewBox="0 0 20 20"><path d="M8.294 16.998c-.435 0-.847-.203-1.111-.553L3.61 11.724a1.392 1.392 0 01.27-1.951 1.392 1.392 0 011.953.27l2.351 3.104 5.911-9.492c.407-.652 1.267-.852 1.921-.445s.854 1.266.446 1.92L9.478 16.34a1.39 1.39 0 01-1.12.656c-.022.002-.042.002-.064.002z" /></symbol><symbol id="sprite_code" viewBox="0 0 20 20"><path d="M5.719 14.75a.997.997 0 01-.664-.252L-.005 10l5.341-4.748a1 1 0 011.328 1.495L3.005 10l3.378 3.002a1 1 0 01-.664 1.748zm8.945-.002L20.005 10l-5.06-4.498a.999.999 0 10-1.328 1.495L16.995 10l-3.659 3.252a1 1 0 001.328 1.496zm-4.678 1.417l2-12a1 1 0 10-1.972-.329l-2 12a1 1 0 101.972.329z" /></symbol><symbol id="sprite_documents" viewBox="0 0 20 20"><path d="M19.398 7.415l-7.444-1.996L10.651.558c-.109-.406-.545-.642-.973-.529L.602 2.461c-.428.114-.686.538-.577.944l3.23 12.051c.109.406.544.643.971.527l3.613-.967-.492 1.838c-.109.406.149.83.577.943l8.11 2.174c.428.115.862-.121.972-.529l2.97-11.084c.108-.406-.15-.83-.578-.943zM1.633 3.631l7.83-2.096 2.898 10.818-7.83 2.096L1.633 3.631zm14.045 14.832L8.864 16.6l.536-2.002 3.901-1.047c.428-.113.688-.537.578-.943l-1.508-5.627 5.947 1.631-2.64 9.851z" /></symbol><symbol id="sprite_email" viewBox="0 0 20 20"><path d="M14.608 12.172c0 .84.239 1.175.864 1.175 1.393 0 2.28-1.775 2.28-4.727 0-4.512-3.288-6.672-7.393-6.672-4.223 0-8.064 2.832-8.064 8.184 0 5.112 3.36 7.896 8.52 7.896 1.752 0 2.928-.192 4.727-.792l.386 1.607c-1.776.577-3.674.744-5.137.744-6.768 0-10.393-3.72-10.393-9.456 0-5.784 4.201-9.72 9.985-9.72 6.024 0 9.215 3.6 9.215 8.016 0 3.744-1.175 6.6-4.871 6.6-1.681 0-2.784-.672-2.928-2.161-.432 1.656-1.584 2.161-3.145 2.161-2.088 0-3.84-1.609-3.84-4.848 0-3.264 1.537-5.28 4.297-5.28 1.464 0 2.376.576 2.782 1.488l.697-1.272h2.016v7.057h.002zm-2.951-3.168c0-1.319-.985-1.872-1.801-1.872-.888 0-1.871.719-1.871 2.832 0 1.68.744 2.616 1.871 2.616.792 0 1.801-.504 1.801-1.896v-1.68z" /></symbol><symbol id="sprite_flag" viewBox="0 0 20 20"><path d="M18.926 5.584c-9.339 13.568-6.142-.26-14.037 6.357L6.684 19H4.665L1 4.59l1.85-.664c8.849-6.471 4.228 5.82 15.637 1.254.364-.147.655.09.439.404z" /></symbol><symbol id="sprite_game-controller" viewBox="0 0 20 20"><path d="M19.444 9.361c-.882-4.926-2.854-6.379-3.903-6.379-1.637 0-2.057 1.217-5.541 1.258-3.484-.041-3.904-1.258-5.541-1.258-1.049 0-3.022 1.453-3.904 6.379-.503 2.812-1.049 7.01.252 7.514 1.619.627 2.168-.941 3.946-2.266C6.558 13.266 7.424 12.95 10 12.95s3.442.316 5.247 1.659c1.778 1.324 2.327 2.893 3.946 2.266 1.301-.504.755-4.701.251-7.514zM6 10a2 2 0 110-4 2 2 0 010 4zm7 0a1 1 0 110-2 1 1 0 110 2zm2-2a1 1 0 110-2 1 1 0 110 2z" /></symbol><symbol id="sprite_mail" viewBox="0 0 20 20"><path d="M1.574 5.286l7.5 4.029c.252.135.578.199.906.199.328 0 .654-.064.906-.199l7.5-4.029c.489-.263.951-1.286.054-1.286H1.521c-.897 0-.435 1.023.053 1.286zm17.039 2.203l-7.727 4.027c-.34.178-.578.199-.906.199s-.566-.021-.906-.199-7.133-3.739-7.688-4.028C.996 7.284 1 7.523 1 7.707V15c0 .42.566 1 1 1h16c.434 0 1-.58 1-1V7.708c0-.184.004-.423-.387-.219z" /></symbol><symbol id="sprite_megaphone" viewBox="0 0 20 20"><path d="M17.223 7.03c-1.584-3.686-4.132-6.49-5.421-5.967-2.189.891 1.304 5.164-9.447 9.533-.929.379-1.164 1.888-.775 2.792.388.902 1.658 1.801 2.587 1.424.161-.066.751-.256.751-.256.663.891 1.357.363 1.604.928l1.158 2.66c.219.502.715.967 1.075.83l2.05-.779c.468-.177.579-.596.436-.924-.154-.355-.786-.459-.967-.873-.18-.412-.769-1.738-.938-2.156-.23-.568.259-1.031.97-1.104 4.894-.512 5.809 2.512 7.475 1.834 1.287-.525 1.025-4.259-.558-7.942zm-.551 5.976c-.287.115-2.213-1.402-3.443-4.267-1.231-2.863-1.076-5.48-.79-5.597.286-.115 2.165 1.717 3.395 4.58s1.124 5.167.838 5.284z" /></symbol><symbol id="sprite_phone" viewBox="0 0 20 20"><path d="M11.229 11.229c-1.583 1.582-3.417 3.096-4.142 2.371-1.037-1.037-1.677-1.941-3.965-.102-2.287 1.838-.53 3.064.475 4.068 1.16 1.16 5.484.062 9.758-4.211 4.273-4.274 5.368-8.598 4.207-9.758-1.005-1.006-2.225-2.762-4.063-.475s-.936 2.927.103 3.965c.722.725-.791 2.559-2.373 4.142z" /></symbol><symbol id="sprite_stopwatch" viewBox="0 0 20 20"><path d="M7.376 6.745c-.447.275 1.197 4.242 1.598 4.888a1.206 1.206 0 002.053-1.266c-.397-.648-3.205-3.898-3.651-3.622zm-.335-4.343a8.98 8.98 0 015.918 0c.329.114.765-.115.572-.611-.141-.36-.277-.712-.332-.855-.131-.339-.6-.619-.804-.665C11.623.097 10.823 0 10 0S8.377.097 7.604.271c-.204.046-.672.326-.803.665l-.332.855c-.193.496.243.726.572.611zm12.057.784a10.132 10.132 0 00-1.283-1.285c-.153-.129-.603-.234-.888.051l-1.648 1.647c.402.288.793.605 1.155.966s.677.752.966 1.155l1.647-1.647c.286-.286.181-.735.051-.887zM10 2.9a8.1 8.1 0 10-.001 16.201A8.1 8.1 0 0010 2.9zm0 14.201A6.1 6.1 0 1110.001 4.9 6.1 6.1 0 0110 17.1z" /></symbol><symbol id="sprite_user" viewBox="0 0 20 20"><path d="M7.725 2.146c-1.016.756-1.289 1.953-1.239 2.59.064.779.222 1.793.222 1.793s-.313.17-.313.854c.109 1.717.683.976.801 1.729.284 1.814.933 1.491.933 2.481 0 1.649-.68 2.42-2.803 3.334C3.196 15.845 1 17 1 19v1h18v-1c0-2-2.197-3.155-4.328-4.072-2.123-.914-2.801-1.684-2.801-3.334 0-.99.647-.667.932-2.481.119-.753.692-.012.803-1.729 0-.684-.314-.854-.314-.854s.158-1.014.221-1.793c.065-.817-.398-2.561-2.3-3.096-.333-.34-.558-.881.466-1.424-2.24-.105-2.761 1.067-3.954 1.929z" /></symbol><symbol id="sprite_github" viewBox="0 0 20 20"><path d="M13.18 11.309c-.718 0-1.3.807-1.3 1.799 0 .994.582 1.801 1.3 1.801s1.3-.807 1.3-1.801c-.001-.992-.582-1.799-1.3-1.799zm4.526-4.683c.149-.365.155-2.439-.635-4.426 0 0-1.811.199-4.551 2.08-.575-.16-1.548-.238-2.519-.238-.973 0-1.945.078-2.52.238C4.74 2.399 2.929 2.2 2.929 2.2c-.789 1.987-.781 4.061-.634 4.426C1.367 7.634.8 8.845.8 10.497c0 7.186 5.963 7.301 7.467 7.301l1.734.002 1.732-.002c1.506 0 7.467-.115 7.467-7.301 0-1.652-.566-2.863-1.494-3.871zm-7.678 10.289h-.056c-3.771 0-6.709-.449-6.709-4.115 0-.879.31-1.693 1.047-2.369C5.537 9.304 7.615 9.9 9.972 9.9h.056c2.357 0 4.436-.596 5.664.531.735.676 1.045 1.49 1.045 2.369 0 3.666-2.937 4.115-6.709 4.115zm-3.207-5.606c-.718 0-1.3.807-1.3 1.799 0 .994.582 1.801 1.3 1.801s1.301-.807 1.301-1.801c0-.992-.582-1.799-1.301-1.799z" /></symbol><symbol id="sprite_linkedin" viewBox="0 0 20 20"><path d="M5 3c0 1.062-.71 1.976-2.001 1.976C1.784 4.976 1 4.114 1 3.052 1 1.962 1.76 1 3 1s1.976.91 2 2zM1 19V6h4v13H1zM7 10.444c0-1.545-.051-2.836-.102-3.951h3.594l.178 1.723h.076c.506-.811 1.746-2 3.822-2C17.1 6.216 19 7.911 19 11.558V19h-4v-6.861c0-1.594-.607-2.81-2-2.81-1.062 0-1.594.86-1.873 1.569-.102.254-.127.608-.127.963V19H7v-8.556z" /></symbol><symbol id="sprite_twitter" viewBox="0 0 20 20"><path d="M17.316 6.246c.008.162.011.326.011.488 0 4.99-3.797 10.742-10.74 10.742-2.133 0-4.116-.625-5.787-1.697a7.577 7.577 0 005.588-1.562 3.779 3.779 0 01-3.526-2.621 3.858 3.858 0 001.705-.065 3.779 3.779 0 01-3.028-3.703v-.047a3.766 3.766 0 001.71.473 3.775 3.775 0 01-1.168-5.041 10.716 10.716 0 007.781 3.945 3.813 3.813 0 01-.097-.861 3.773 3.773 0 013.774-3.773 3.77 3.77 0 012.756 1.191 7.602 7.602 0 002.397-.916 3.789 3.789 0 01-1.66 2.088 7.55 7.55 0 002.168-.594 7.623 7.623 0 01-1.884 1.953z" /></symbol><symbol id="sprite_books" viewBox="0 0 36 32"><path d="M7 4H1c-.55 0-1 .45-1 1v22c0 .55.45 1 1 1h6c.55 0 1-.45 1-1V5c0-.55-.45-1-1-1zm-1 6H2V8h4v2zM17 4h-6c-.55 0-1 .45-1 1v22c0 .55.45 1 1 1h6c.55 0 1-.45 1-1V5c0-.55-.45-1-1-1zm-1 6h-4V8h4v2z" /><path d="M23.909 5.546l-5.358 2.7a1.003 1.003 0 00-.443 1.343l8.999 17.861c.247.491.852.691 1.343.443l5.358-2.7c.491-.247.691-.852.443-1.343L25.252 5.989a1.003 1.003 0 00-1.343-.443z" /></symbol><symbol id="sprite_display" viewBox="0 0 32 32"><path d="M0 2v20h32V2H0zm30 18H2V4h28v16zm-9 4H11l-1 4-2 2h16l-2-2z" /></symbol><symbol id="sprite_database" viewBox="0 0 32 32"><path d="M16 0C7.163 0 0 2.239 0 5v4c0 2.761 7.163 5 16 5s16-2.239 16-5V5c0-2.761-7.163-5-16-5z" /><path d="M16 17c-8.837 0-16-2.239-16-5v6c0 2.761 7.163 5 16 5s16-2.239 16-5v-6c0 2.761-7.163 5-16 5z" /><path d="M16 26c-8.837 0-16-2.239-16-5v6c0 2.761 7.163 5 16 5s16-2.239 16-5v-6c0 2.761-7.163 5-16 5z" /></symbol><symbol id="sprite_wrench" viewBox="0 0 32 32"><path d="M31.342 25.559L16.95 13.223A9 9 0 006.387.387l5.2 5.2a2.005 2.005 0 010 2.828l-3.172 3.172a2.005 2.005 0 01-2.828 0l-5.2-5.2A9 9 0 0013.223 16.95l12.336 14.392a1.828 1.828 0 002.716.104l3.172-3.172c.778-.778.731-2-.104-2.716z" /></symbol><symbol id="sprite_mug" viewBox="0 0 32 32"><path d="M30 10h-6V7c0-2.761-5.373-5-12-5S0 4.239 0 7v20c0 2.761 5.373 5 12 5s12-2.239 12-5v-3h6a2 2 0 002-2V12a2 2 0 00-2-2zM5.502 8.075C4.346 7.694 3.645 7.286 3.27 7c.375-.286 1.075-.694 2.232-1.075C7.313 5.328 9.62 5 12 5s4.688.329 6.498.925c1.156.381 1.857.789 2.232 1.075-.375.286-1.076.694-2.232 1.075C16.687 8.672 14.38 9 12 9s-4.688-.329-6.498-.925zM28 20h-4v-6h4v6z" /></symbol><symbol id="sprite_power" viewBox="0 0 32 32"><path d="M12 0L0 16h12L4 32l28-20H16L28 0z" /></symbol><symbol id="sprite_bookmark" viewBox="0 0 32 32"><path d="M6 0v32l10-10 10 10V0z" /></symbol><symbol id="sprite_bookmarks" viewBox="0 0 32 32"><path d="M8 4v28l10-10 10 10V4zm16-4H4v28l2-2V2h18z" /></symbol><symbol id="sprite_star-full" viewBox="0 0 32 32"><path d="M32 12.408l-11.056-1.607L16 .783l-4.944 10.018L0 12.408l8 7.798-1.889 11.011L16 26.018l9.889 5.199L24 20.206l8-7.798z" /></symbol><symbol id="sprite_sort-amount-asc" viewBox="0 0 32 32"><path d="M10 24V0H6v24H1l7 7 7-7h-5z" /><path d="M14 18h18v4H14v-4zM14 12h14v4H14v-4zM14 6h10v4H14V6zM14 0h6v4h-6V0z" /></symbol><symbol id="sprite_stackoverflow" viewBox="0 0 32 32"><path d="M32 20v12H0V20h4v8h24v-8zM6 22h20v4H6zm.473-4.329l.866-3.905 19.526 4.328-.866 3.905zm2.266-8.029l1.69-3.625 18.126 8.452-1.69 3.625zm22.252 1.654l-2.435 3.173L12.689 2.294 14.45 0h1.82z" /></symbol></defs></symbol><symbol viewBox="0 0 32 32" id="stackoverflow"><path d="M32 20v12H0V20h4v8h24v-8zM6 22h20v4H6zm.473-4.329l.866-3.905 19.526 4.328-.866 3.905zm2.266-8.029l1.69-3.625 18.126 8.452-1.69 3.625zm22.252 1.654l-2.435 3.173L12.689 2.294 14.45 0h1.82z" /></symbol><symbol viewBox="0 0 32 32" id="star-full"><path d="M32 12.408l-11.056-1.607L16 .783l-4.944 10.018L0 12.408l8 7.798-1.889 11.011L16 26.018l9.889 5.199L24 20.206l8-7.798z" /></symbol><symbol viewBox="0 0 20 20" id="stopwatch"><path d="M7.376 6.745c-.447.275 1.197 4.242 1.598 4.888a1.206 1.206 0 002.053-1.266c-.397-.648-3.205-3.898-3.651-3.622zm-.335-4.343a8.98 8.98 0 015.918 0c.329.114.765-.115.572-.611-.141-.36-.277-.712-.332-.855-.131-.339-.6-.619-.804-.665C11.623.097 10.823 0 10 0S8.377.097 7.604.271c-.204.046-.672.326-.803.665l-.332.855c-.193.496.243.726.572.611zm12.057.784a10.132 10.132 0 00-1.283-1.285c-.153-.129-.603-.234-.888.051l-1.648 1.647c.402.288.793.605 1.155.966s.677.752.966 1.155l1.647-1.647c.286-.286.181-.735.051-.887zM10 2.9a8.1 8.1 0 10-.001 16.201A8.1 8.1 0 0010 2.9zm0 14.201A6.1 6.1 0 1110.001 4.9 6.1 6.1 0 0110 17.1z" /></symbol><symbol viewBox="0 0 20 20" id="twitter"><path d="M17.316 6.246c.008.162.011.326.011.488 0 4.99-3.797 10.742-10.74 10.742-2.133 0-4.116-.625-5.787-1.697a7.577 7.577 0 005.588-1.562 3.779 3.779 0 01-3.526-2.621 3.858 3.858 0 001.705-.065 3.779 3.779 0 01-3.028-3.703v-.047a3.766 3.766 0 001.71.473 3.775 3.775 0 01-1.168-5.041 10.716 10.716 0 007.781 3.945 3.813 3.813 0 01-.097-.861 3.773 3.773 0 013.774-3.773 3.77 3.77 0 012.756 1.191 7.602 7.602 0 002.397-.916 3.789 3.789 0 01-1.66 2.088 7.55 7.55 0 002.168-.594 7.623 7.623 0 01-1.884 1.953z" /></symbol><symbol viewBox="0 0 20 20" id="user"><path d="M7.725 2.146c-1.016.756-1.289 1.953-1.239 2.59.064.779.222 1.793.222 1.793s-.313.17-.313.854c.109 1.717.683.976.801 1.729.284 1.814.933 1.491.933 2.481 0 1.649-.68 2.42-2.803 3.334C3.196 15.845 1 17 1 19v1h18v-1c0-2-2.197-3.155-4.328-4.072-2.123-.914-2.801-1.684-2.801-3.334 0-.99.647-.667.932-2.481.119-.753.692-.012.803-1.729 0-.684-.314-.854-.314-.854s.158-1.014.221-1.793c.065-.817-.398-2.561-2.3-3.096-.333-.34-.558-.881.466-1.424-2.24-.105-2.761 1.067-3.954 1.929z" /></symbol><symbol viewBox="0 0 32 32" id="wrench"><path d="M31.342 25.559L16.95 13.223A9 9 0 006.387.387l5.2 5.2a2.005 2.005 0 010 2.828l-3.172 3.172a2.005 2.005 0 01-2.828 0l-5.2-5.2A9 9 0 0013.223 16.95l12.336 14.392a1.828 1.828 0 002.716.104l3.172-3.172c.778-.778.731-2-.104-2.716z" /></symbol></defs><use id="bookmark-usage" xlink:href="#bookmark" class="sprite-symbol-usage" /><use id="bookmarks-usage" xlink:href="#bookmarks" class="sprite-symbol-usage" /><use id="books-usage" xlink:href="#books" class="sprite-symbol-usage" /><use id="brush-usage" xlink:href="#brush" class="sprite-symbol-usage" /><use id="chat-usage" xlink:href="#chat" class="sprite-symbol-usage" /><use id="check-usage" xlink:href="#check" class="sprite-symbol-usage" /><use id="code-usage" xlink:href="#code" class="sprite-symbol-usage" /><use id="css3-usage" xlink:href="#css3" class="sprite-symbol-usage" /><use id="database-usage" xlink:href="#database" class="sprite-symbol-usage" /><use id="display-usage" xlink:href="#display" class="sprite-symbol-usage" /><use id="documents-usage" xlink:href="#documents" class="sprite-symbol-usage" /><use id="download-usage" xlink:href="#download" class="sprite-symbol-usage" /><use id="email-usage" xlink:href="#email" class="sprite-symbol-usage" /><use id="flag-usage" xlink:href="#flag" class="sprite-symbol-usage" /><use id="game-controller-usage" xlink:href="#game-controller" class="sprite-symbol-usage" /><use id="github-usage" xlink:href="#github" class="sprite-symbol-usage" /><use id="html5-usage" xlink:href="#html5" class="sprite-symbol-usage" /><use id="javascript-usage" xlink:href="#javascript" class="sprite-symbol-usage" /><use id="linkedin-usage" xlink:href="#linkedin" class="sprite-symbol-usage" /><use id="mail-usage" xlink:href="#mail" class="sprite-symbol-usage" /><use id="megaphone-usage" xlink:href="#megaphone" class="sprite-symbol-usage" /><use id="mongodb-usage" xlink:href="#mongodb" class="sprite-symbol-usage" /><use id="mug-usage" xlink:href="#mug" class="sprite-symbol-usage" /><use id="node-dot-js-usage" xlink:href="#node-dot-js" class="sprite-symbol-usage" /><use id="phone-usage" xlink:href="#phone" class="sprite-symbol-usage" /><use id="power-usage" xlink:href="#power" class="sprite-symbol-usage" /><use id="react-usage" xlink:href="#react" class="sprite-symbol-usage" /><use id="sort-amount-asc-usage" xlink:href="#sort-amount-asc" class="sprite-symbol-usage" /><use id="sprite-usage" xlink:href="#sprite" class="sprite-symbol-usage" /><use id="stackoverflow-usage" xlink:href="#stackoverflow" class="sprite-symbol-usage" /><use id="star-full-usage" xlink:href="#star-full" class="sprite-symbol-usage" /><use id="stopwatch-usage" xlink:href="#stopwatch" class="sprite-symbol-usage" /><use id="twitter-usage" xlink:href="#twitter" class="sprite-symbol-usage" /><use id="user-usage" xlink:href="#user" class="sprite-symbol-usage" /><use id="wrench-usage" xlink:href="#wrench" class="sprite-symbol-usage" /></svg>